<svg xmlns="http://www.w3.org/2000/svg" viewBox="0 0 64 64" role="img" aria-labelledby="title desc">
  <title id="title">RM</title>
  <desc id="desc">Raghav Mittal monogram</desc>
  <rect width="64" height="64" rx="14" fill="#101827"/>
  <path d="M14 47V17h12.5c8.2 0 12.5 4.1 12.5 10.2 0 4.2-2.2 7.4-6.3 8.9L40 47h-8.3l-6.2-9.9h-3.9V47H14Zm7.6-16.2h4.2c3.7 0 5.7-1.4 5.7-4.1 0-2.8-2-4.2-5.7-4.2h-4.2v8.3Z" fill="#60a5fa"/>
  <path d="M40 47V17h7.1l5 14.3L57 17H64v30h-7.3V29.5L54 40h-4.2l-3-10.5V47H40Z" fill="#dbeafe" transform="translate(-4 0)"/>
</svg>
